<mxfile host="65bd71144e">
    <diagram id="hQACKPNQrgku5QdKCAGj" name="Page-1">
        <mxGraphModel dx="1968" dy="1890" grid="1" gridSize="10" guides="1" tooltips="1" connect="1" arrows="1" fold="1" page="1" pageScale="1" pageWidth="850" pageHeight="1100" math="0" shadow="0">
            <root>
                <mxCell id="0"/>
                <mxCell id="1" parent="0"/>
                <mxCell id="2" value="" style="whiteSpace=wrap;html=1;aspect=fixed;fillColor=#ffcc99;strokeColor=#36393d;" vertex="1" parent="1">
                    <mxGeometry x="-10" width="1100" height="1100" as="geometry"/>
                </mxCell>
                <mxCell id="3" value="&lt;h1&gt;&lt;font face=&quot;Times New Roman&quot; style=&quot;font-size: 48px&quot;&gt;Nicholas Webb&lt;/font&gt;&lt;/h1&gt;" style="rounded=0;whiteSpace=wrap;html=1;fillColor=#647687;strokeColor=#314354;fontColor=#ffffff;align=left;" vertex="1" parent="1">
                    <mxGeometry x="-10" width="1100" height="70" as="geometry"/>
                </mxCell>
                <mxCell id="4" value="&lt;h1&gt;About me&lt;/h1&gt;" style="rounded=0;whiteSpace=wrap;html=1;fillColor=#647687;strokeColor=none;fontColor=#ffffff;align=left;" vertex="1" parent="1">
                    <mxGeometry x="630" width="120" height="70" as="geometry"/>
                </mxCell>
                <mxCell id="5" value="&lt;h1&gt;Contact info&lt;/h1&gt;" style="rounded=0;whiteSpace=wrap;html=1;fillColor=none;strokeColor=none;fontColor=#ffffff;align=left;" vertex="1" parent="1">
                    <mxGeometry x="760" width="160" height="70" as="geometry"/>
                </mxCell>
                <mxCell id="6" value="&lt;h1&gt;Resume&lt;/h1&gt;" style="rounded=0;whiteSpace=wrap;html=1;fillColor=#647687;strokeColor=none;fontColor=#ffffff;align=left;" vertex="1" parent="1">
                    <mxGeometry x="910" width="100" height="70" as="geometry"/>
                </mxCell>
                <mxCell id="7" value="&lt;h1&gt;Work&lt;/h1&gt;" style="rounded=0;whiteSpace=wrap;html=1;fillColor=#647687;strokeColor=none;fontColor=#ffffff;align=left;" vertex="1" parent="1">
                    <mxGeometry x="1020" width="60" height="70" as="geometry"/>
                </mxCell>
                <mxCell id="8" value="" style="rounded=0;whiteSpace=wrap;html=1;fontFamily=Times New Roman;fontSize=48;strokeColor=default;fillColor=#647687;" vertex="1" parent="1">
                    <mxGeometry x="-10" y="90" width="1100" height="260" as="geometry"/>
                </mxCell>
            </root>
        </mxGraphModel>
    </diagram>
</mxfile>